<?xml version="1.0" encoding="UTF-8" standalone="no"?>
<!-- Created with Inkscape (http://www.inkscape.org/) -->

<svg
   xmlns:dc="http://purl.org/dc/elements/1.1/"
   xmlns:cc="http://creativecommons.org/ns#"
   xmlns:rdf="http://www.w3.org/1999/02/22-rdf-syntax-ns#"
   xmlns:svg="http://www.w3.org/2000/svg"
   xmlns="http://www.w3.org/2000/svg"
   xmlns:sodipodi="http://sodipodi.sourceforge.net/DTD/sodipodi-0.dtd"
   xmlns:inkscape="http://www.inkscape.org/namespaces/inkscape"
   width="25.4mm"
   height="19.049999mm"
   viewBox="0 0 25.4 19.049999"
   version="1.1"
   id="svg847"
   inkscape:version="0.92.4 (5da689c313, 2019-01-14)"
   sodipodi:docname="delete.svg">
  <defs
     id="defs841" />
  <sodipodi:namedview
     id="base"
     pagecolor="#ffffff"
     bordercolor="#666666"
     borderopacity="1.0"
     inkscape:pageopacity="0.0"
     inkscape:pageshadow="2"
     inkscape:zoom="4"
     inkscape:cx="11.353085"
     inkscape:cy="44.891859"
     inkscape:document-units="mm"
     inkscape:current-layer="g11"
     showgrid="false"
     inkscape:window-width="1680"
     inkscape:window-height="988"
     inkscape:window-x="-8"
     inkscape:window-y="-8"
     inkscape:window-maximized="1" />
  <metadata
     id="metadata844">
    <rdf:RDF>
      <cc:Work
         rdf:about="">
        <dc:format>image/svg+xml</dc:format>
        <dc:type
           rdf:resource="http://purl.org/dc/dcmitype/StillImage" />
        <dc:title />
      </cc:Work>
    </rdf:RDF>
  </metadata>
  <g
     inkscape:label="Calque 1"
     inkscape:groupmode="layer"
     id="layer1"
     transform="translate(-24.955879,-3.6550417)">
    <g
       id="g5"
       transform="matrix(0.26458333,0,0,0.26458333,4.9136914,38.464286)">
      <title
         id="title2">background</title>
      <rect
         id="canvas_background"
         height="402"
         width="582"
         y="-1"
         x="-1"
         style="fill:none" />
    </g>
    <g
       id="g11"
       transform="matrix(0.26458333,0,0,0.26458333,24.955879,0.48004173)"
       inkscape:export-filename="C:\Users\lp\Desktop\Dukto\g11.svg.png"
       inkscape:export-xdpi="96"
       inkscape:export-ydpi="96">
      <title
         id="title7">Layer 1</title>
      <path
         id="svg_1"
         d="m 79.75,20 c 2.068125,0 3.75,1.794 3.75,4 v 48 c 0,2.206 -1.681875,4 -3.75,4 H 34.368438 L 11.035,48 34.368438,20 H 79.75 m 0,-8 H 31 L 1.0000001,48 31,84 H 79.75 C 85.962813,84 91,78.627 91,72 V 24 C 91,17.373 85.962813,12 79.75,12 Z"
         inkscape:connector-curvature="0"
         style="fill:#eaeaea;stroke-width:0.9682458" />
      <path
         id="svg_2"
         d="m 61.657,48 8.485,-8.485 c 1.562,-1.562 1.562,-4.095 0,-5.657 -1.562,-1.562 -4.096,-1.562 -5.657,0 L 56,42.343 47.515,33.858 c -1.562,-1.562 -4.095,-1.562 -5.657,0 -1.562,1.562 -1.562,4.095 0,5.657 L 50.343,48 41.858,56.485 c -1.562,1.562 -1.562,4.095 0,5.657 1.562,1.562 4.095,1.562 5.657,0 L 56,53.657 l 8.485,8.485 c 1.562,1.562 4.095,1.562 5.657,0 1.562,-1.562 1.562,-4.096 0,-5.657 z"
         inkscape:connector-curvature="0"
         style="fill:#eaeaea" />
    </g>
  </g>
</svg>
