<?xml version="1.0" encoding="UTF-8" standalone="no"?>
<!-- Created with Inkscape (http://www.inkscape.org/) -->

<svg
   xmlns:dc="http://purl.org/dc/elements/1.1/"
   xmlns:cc="http://creativecommons.org/ns#"
   xmlns:rdf="http://www.w3.org/1999/02/22-rdf-syntax-ns#"
   xmlns:svg="http://www.w3.org/2000/svg"
   xmlns="http://www.w3.org/2000/svg"
   xmlns:sodipodi="http://sodipodi.sourceforge.net/DTD/sodipodi-0.dtd"
   xmlns:inkscape="http://www.inkscape.org/namespaces/inkscape"
   width="25.4mm"
   height="19.049999mm"
   viewBox="0 0 25.4 19.049999"
   version="1.1"
   id="svg847"
   inkscape:version="0.92.4 (5da689c313, 2019-01-14)"
   sodipodi:docname="delete.svg">
  <defs
     id="defs841" />
  <sodipodi:namedview
     id="base"
     pagecolor="#ffffff"
     bordercolor="#666666"
     borderopacity="1.0"
     inkscape:pageopacity="0.0"
     inkscape:pageshadow="2"
     inkscape:zoom="5.6568542"
     inkscape:cx="41.989327"
     inkscape:cy="58.186989"
     inkscape:document-units="mm"
     inkscape:current-layer="g11"
     showgrid="false"
     inkscape:window-width="1680"
     inkscape:window-height="988"
     inkscape:window-x="-8"
     inkscape:window-y="-8"
     inkscape:window-maximized="1" />
  <metadata
     id="metadata844">
    <rdf:RDF>
      <cc:Work
         rdf:about="">
        <dc:format>image/svg+xml</dc:format>
        <dc:type
           rdf:resource="http://purl.org/dc/dcmitype/StillImage" />
        <dc:title />
      </cc:Work>
    </rdf:RDF>
  </metadata>
  <g
     inkscape:label="Calque 1"
     inkscape:groupmode="layer"
     id="layer1"
     transform="translate(-24.955879,-3.6550417)">
    <g
       id="g5"
       transform="matrix(0.26458333,0,0,0.26458333,4.9136914,38.464286)">
      <title
         id="title2">background</title>
      <rect
         id="canvas_background"
         height="402"
         width="582"
         y="-1"
         x="-1"
         style="fill:none" />
    </g>
    <g
       id="g11"
       transform="matrix(0.26458333,0,0,0.26458333,24.955879,0.48004173)"
       inkscape:export-filename="C:\Users\lp\Desktop\Dukto\g11.svg.png"
       inkscape:export-xdpi="96"
       inkscape:export-ydpi="96">
      <title
         id="title7">Layer 1</title>
      <path
         id="svg_2"
         d="m 59.533015,49.261039 16.759449,-16.75945 c 3.08524,-3.08524 3.08524,-8.088385 0,-11.173625 -3.08524,-3.08524 -8.09036,-3.08524 -11.173624,0 L 48.359389,38.087414 31.59994,21.327964 c -3.08524,-3.08524 -8.088386,-3.08524 -11.173626,0 -3.08524,3.08524 -3.08524,8.088385 0,11.173625 l 16.759451,16.75945 -16.759451,16.759449 c -3.08524,3.08524 -3.08524,8.088386 0,11.173626 3.08524,3.08524 8.088386,3.08524 11.173626,0 L 48.359389,60.434663 65.11884,77.194114 c 3.08524,3.08524 8.088384,3.08524 11.173624,0 3.08524,-3.08524 3.08524,-8.09036 0,-11.173626 z"
         inkscape:connector-curvature="0"
         style="fill:#eaeaea;stroke-width:1.97518563" />
    </g>
  </g>
</svg>
