<svg width="45" height="45" xmlns="http://www.w3.org/2000/svg">

 <g>
  <title>background</title>
  <rect fill="none" id="canvas_background" height="402" width="582" y="-1" x="-1"/>
 </g>
 <g>
  <title>Layer 1</title>
  <rect id="svg_2" y="4.875" x="23.7" width="11" transform="matrix(-0.7071,-0.7072,0.7072,-0.7071,38.2666,48.6029) " height="23" fill="#eaeaea"/>
  <path id="svg_3" fill="#eaeaea" d="m44.087,3.686l-2.494,-2.494c-1.377,-1.377 -3.61,-1.377 -4.987,0l-1.75,1.748l7.778,7.778l1.749,-1.749c1.378,-1.376 1.082,-3.906 -0.296,-5.283z"/>
  <polygon id="svg_4" points="16,22.229 16,30 23.246,30  " fill="#eaeaea"/>
  <path id="svg_5" fill="#eaeaea" d="m29,40l-24,0l0,-24l12.555,0l5,-5l-19.055,0c-1.657,0 -3.5,0.843 -3.5,2.5l0,28c0,1.656 1.843,3.5 3.5,3.5l28,0c1.656,0 2.5,-1.844 2.5,-3.5l0,-17.904l-5,5l0,11.404z"/>
 </g>
</svg>