<svg width="50" height="50" xmlns="http://www.w3.org/2000/svg">

 <g>
  <title>background</title>
  <rect fill="none" id="canvas_background" height="402" width="582" y="-1" x="-1"/>
 </g>
 <g>
  <title>Layer 1</title>
  <path id="svg_3" fill="#eaeaea" d="m50,45.233c0,2.633 -2.134,4.767 -4.767,4.767l-40.466,0c-2.633,0 -4.767,-2.134 -4.767,-4.767l0,-40.466c0,-2.633 2.134,-4.767 4.767,-4.767l40.466,0c2.633,0 4.767,2.134 4.767,4.767l0,40.466z"/>
  <path id="svg_4" opacity="0.2" d="m35.618,23.619l-21.37,13.078l13.304,13.303l17.681,0c2.633,0 4.767,-2.134 4.767,-4.767l0,-7.195l-14.382,-14.419z"/>
  <path id="svg_5" fill="#ffffff" d="m35.542687,23.491l-17.177,-10.277c-3.004,-1.926 -4.391,0.539 -4.391,0.539l0,11.247l0,11.246c0,0 1.387,2.465 4.391,0.539l17.178,-10.277c0,0 0.635,-0.382 0.635,-1.509s-0.636,-1.508 -0.636,-1.508z"/>
 </g>
</svg>