<?xml version="1.0" encoding="UTF-8" standalone="no"?>
<svg
   xmlns:dc="http://purl.org/dc/elements/1.1/"
   xmlns:cc="http://creativecommons.org/ns#"
   xmlns:rdf="http://www.w3.org/1999/02/22-rdf-syntax-ns#"
   xmlns:svg="http://www.w3.org/2000/svg"
   xmlns="http://www.w3.org/2000/svg"
   xmlns:sodipodi="http://sodipodi.sourceforge.net/DTD/sodipodi-0.dtd"
   xmlns:inkscape="http://www.inkscape.org/namespaces/inkscape"
   width="50"
   height="50"
   version="1.1"
   id="svg14"
   sodipodi:docname="launch.svg"
   inkscape:version="0.92.4 (5da689c313, 2019-01-14)">
  <metadata
     id="metadata20">
    <rdf:RDF>
      <cc:Work
         rdf:about="">
        <dc:format>image/svg+xml</dc:format>
        <dc:type
           rdf:resource="http://purl.org/dc/dcmitype/StillImage" />
      </cc:Work>
    </rdf:RDF>
  </metadata>
  <defs
     id="defs18" />
  <sodipodi:namedview
     pagecolor="#ffffff"
     bordercolor="#666666"
     borderopacity="1"
     objecttolerance="10"
     gridtolerance="10"
     guidetolerance="10"
     inkscape:pageopacity="0"
     inkscape:pageshadow="2"
     inkscape:window-width="1680"
     inkscape:window-height="988"
     id="namedview16"
     showgrid="false"
     inkscape:zoom="13.350176"
     inkscape:cx="8.3160112"
     inkscape:cy="22.716359"
     inkscape:window-x="-8"
     inkscape:window-y="-8"
     inkscape:window-maximized="1"
     inkscape:current-layer="svg14" />
  <g
     id="g5">
    <title
       id="title2">background</title>
    <rect
       fill="none"
       id="canvas_background"
       height="402"
       width="582"
       y="-1"
       x="-1" />
  </g>
  <path
     style="fill:none;stroke:#000000;stroke-width:0.02831069;stroke-miterlimit:4;stroke-dasharray:none;stroke-opacity:1"
     d="M 15.250283,37.326195 C 14.991076,37.223916 14.685794,37.01213 14.407598,36.741592 L 13.971367,36.31737 V 25.043612 13.769854 l 0.175908,-0.23843 c 0.236325,-0.32032 0.686924,-0.674011 1.097484,-0.861452 0.511045,-0.233318 1.452735,-0.216227 2.103952,0.03819 0.405667,0.158483 4.640835,2.667979 17.483804,10.35981 0.822647,0.492694 0.916331,0.571755 1.104855,0.932397 0.361044,0.690673 0.26701,1.766834 -0.199687,2.285291 -0.264472,0.293802 -17.554705,10.664283 -18.283216,10.966059 -0.640967,0.265513 -1.634931,0.2991 -2.204184,0.07448 z"
     id="path835"
     inkscape:connector-curvature="0" />
  <path
     style="fill:none;stroke:#000000;stroke-width:0.02831069;stroke-miterlimit:4;stroke-dasharray:none;stroke-opacity:1"
     d="M 15.376523,37.304264 C 15.020459,37.177183 14.778085,37.017655 14.371081,36.642491 L 14.046273,36.343093 V 25.038712 13.734331 l 0.346472,-0.370407 c 0.190559,-0.203723 0.53606,-0.463512 0.76778,-0.577308 0.368993,-0.181209 0.505019,-0.206275 1.095456,-0.201866 0.519483,0.0039 0.756307,0.04181 1.032254,0.165344 0.944185,0.422677 18.085924,10.648042 18.383391,10.966034 0.274143,0.293059 0.396953,0.689831 0.395183,1.276748 -0.002,0.653935 -0.168383,1.076149 -0.533265,1.352998 -0.415353,0.315142 -2.796617,1.768739 -8.678452,5.297595 -7.3767,4.425714 -9.320045,5.553422 -9.772137,5.670693 -0.477426,0.123843 -1.345819,0.118805 -1.706432,-0.0099 z"
     id="path837"
     inkscape:connector-curvature="0" />
  <path
     style="fill:none;stroke:#000000;stroke-width:0.02831069;stroke-miterlimit:4;stroke-dasharray:none;stroke-opacity:1"
     d="m 15.207306,37.162347 c -0.20599,-0.09938 -0.534637,-0.322935 -0.730327,-0.496796 L 14.121178,36.349442 V 25.014584 13.679726 l 0.389341,-0.35005 c 0.653685,-0.58772 0.881267,-0.675424 1.745462,-0.672657 0.666473,0.0021 0.792104,0.02483 1.139544,0.205852 1.397847,0.728305 15.452484,9.094289 17.797619,10.593984 0.643683,0.41163 0.797115,0.704147 0.797115,1.519701 0,0.777251 -0.156481,1.098566 -0.71998,1.478395 -1.549049,1.044144 -15.679258,9.506016 -17.403832,10.42228 -0.784655,0.416887 -0.78827,0.417926 -1.53556,0.441835 -0.666903,0.02134 -0.79013,0.0042 -1.123581,-0.156719 z"
     id="path839"
     inkscape:connector-curvature="0" />
  <path
     style="fill:none;stroke:#000000;stroke-width:0.02831069;stroke-miterlimit:4;stroke-dasharray:none;stroke-opacity:1"
     d="m 15.169853,37.076857 c -0.185391,-0.09746 -0.48033,-0.300766 -0.655422,-0.451782 L 14.196083,36.350499 V 25.01398 13.677461 l 0.39132,-0.342317 c 0.526263,-0.460363 0.819844,-0.586621 1.459556,-0.627702 0.985723,-0.0633 0.810192,-0.150861 6.773309,3.378659 1.910169,1.130613 5.086539,3.022791 7.058599,4.20484 5.655518,3.389904 5.733909,3.441606 5.936644,3.915429 0.132109,0.308758 0.13326,1.22723 0.0019,1.541542 -0.208205,0.498304 -0.490136,0.680311 -8.438013,5.447356 -6.265776,3.758142 -9.049703,5.391677 -9.846095,5.77743 -0.566097,0.274204 -0.630361,0.288169 -1.310844,0.284852 -0.603278,-0.0029 -0.768457,-0.03129 -1.052638,-0.180693 z"
     id="path841"
     inkscape:connector-curvature="0" />
  <path
     style="fill:#008000;stroke:#000000;stroke-width:0.04158585;stroke-miterlimit:4;stroke-dasharray:none;stroke-opacity:1"
     d="M 11.667911,42.934875 C 11.425846,42.809076 11.017363,42.535627 10.76017,42.327211 L 10.292546,41.948275 V 25.294784 8.641295 L 10.76017,8.2339075 c 0.257193,-0.224063 0.730477,-0.5299606 1.051741,-0.6797747 0.506758,-0.2363123 0.706657,-0.2672842 1.509365,-0.2338548 0.875461,0.036458 0.98908,0.071668 2.111599,0.6543567 2.061001,1.0698451 23.252125,13.6807813 25.162864,14.9745383 1.216824,0.82391 1.322894,0.991975 1.363041,2.159735 0.05946,1.729509 0.382351,1.46828 -8.230006,6.658378 -10.873478,6.552727 -17.210172,10.285043 -18.644136,10.981408 -0.832034,0.404053 -0.925358,0.424399 -1.925512,0.419772 -0.843351,-0.004 -1.138086,-0.05007 -1.491215,-0.233591 z"
     id="path843"
     inkscape:connector-curvature="0" />
</svg>
