<svg width="1792" height="1792" xmlns="http://www.w3.org/2000/svg">

 <g>
  <title>background</title>
  <rect fill="none" id="canvas_background" height="402" width="582" y="-1" x="-1"/>
 </g>
 <g>
  <title>Layer 1</title>
  <path fill="#eaeaea" id="svg_1" d="m512,1536l768,0l0,-384l-768,0l0,384zm896,0l128,0l0,-896q0,-14 -10,-38.5t-20,-34.5l-281,-281q-10,-10 -34,-20t-39,-10l0,416q0,40 -28,68t-68,28l-576,0q-40,0 -68,-28t-28,-68l0,-416l-128,0l0,1280l128,0l0,-416q0,-40 28,-68t68,-28l832,0q40,0 68,28t28,68l0,416zm-384,-928l0,-320q0,-13 -9.5,-22.5t-22.5,-9.5l-192,0q-13,0 -22.5,9.5t-9.5,22.5l0,320q0,13 9.5,22.5t22.5,9.5l192,0q13,0 22.5,-9.5t9.5,-22.5zm640,32l0,928q0,40 -28,68t-68,28l-1344,0q-40,0 -68,-28t-28,-68l0,-1344q0,-40 28,-68t68,-28l928,0q40,0 88,20t76,48l280,280q28,28 48,76t20,88z"/>
 </g>
</svg>