<svg width="24" height="24" xmlns="http://www.w3.org/2000/svg">
 <title/>

 <g>
  <title>background</title>
  <rect fill="none" id="canvas_background" height="402" width="582" y="-1" x="-1"/>
 </g>
 <g>
  <title>Layer 1</title>
  <path fill="#eaeaea" id="svg_1" d="m21.5,21l-1.5,0l0,-11.5a0.5,0.5 0 0 0 -0.5,-0.5l-3,0a0.5,0.5 0 0 0 -0.5,0.5l0,11.5l-2,0l0,-7.5a0.5,0.5 0 0 0 -0.5,-0.5l-3,0a0.5,0.5 0 0 0 -0.5,0.5l0,7.5l-2,0l0,-6.5a0.5,0.5 0 0 0 -0.5,-0.5l-3,0a0.5,0.5 0 0 0 -0.5,0.5l0,6.5l-1.5,0a0.5,0.5 0 0 0 0,1l19,0a0.5,0.5 0 0 0 0,-1zm-14.5,0l-2,0l0,-6l2,0l0,6zm6,-6l-2,0l0,-1l2,0l0,1zm6,0l-2,0l0,-5l2,0l0,5z"/>
  <path fill="#eaeaea" id="svg_2" d="m2.5,13a0.47,0.47 0 0 0 0.35,-0.15l4.7,-4.69l3.65,2.74a0.49,0.49 0 0 0 0.65,-0.05l7.15,-7.14l0,1.79a0.5,0.5 0 0 0 1,0l0,-3a0.41,0.41 0 0 0 0,-0.19a0.51,0.51 0 0 0 -0.31,-0.31a0.41,0.41 0 0 0 -0.19,0l-3,0a0.5,0.5 0 0 0 0,1l1.79,0l-6.84,6.84l-3.65,-2.74a0.49,0.49 0 0 0 -0.65,0.05l-5,5a0.48,0.48 0 0 0 0,0.7a0.47,0.47 0 0 0 0.35,0.15z"/>
 </g>
</svg>